<svg width="400" height="220" viewBox="0 0 400 220" xmlns="http://www.w3.org/2000/svg"><defs><clipPath id="xtbc-id"><path x="0" y="0" width="400" height="220" d="M15,0 h370 a15,15 0 0 1 15,15 v190 a15,15 0 0 1 -15,15 h-370 a15,15 0 0 1 -15,-15 v-190 a15,15 0 0 1 15,-15"/></clipPath></defs><clipPath id="xtcp-id"><path x="0" y="0" width="400" height="220" d="M15,0 h370 a15,15 0 0 1 15,15 v190 a15,15 0 0 1 -15,15 h-370 a15,15 0 0 1 -15,-15 v-190 a15,15 0 0 1 15,-15"/></clipPath><mask id="xtom-id"><rect x="1" y="1" width="398" height="218" fill="#fff"/><path width="400" height="220" fill="none" stroke="#000" stroke-width="2" d="M4.393000000000001,4.393000000000001 A15,15 0 0 1 15,0 h370 a15,15 0 0 1 15,15 v190 a15,15 0 0 1 -15,15 h-370 a15,15 0 0 1 -15,-15 v-190 A15,15 0 0 1 4.393000000000001,4.393000000000001"/></mask><path x="0" y="0" width="400" height="220" fill="hsl(0, 0%, 10%)" d="M15,0 h370 a15,15 0 0 1 15,15 v190 a15,15 0 0 1 -15,15 h-370 a15,15 0 0 1 -15,-15 v-190 a15,15 0 0 1 15,-15"/><path width="400" height="220" clip-path="url(#xtbc-id)" fill="none" stroke="hsl(0, 0%, 19%)" stroke-width="2" d="M4.393000000000001,4.393000000000001 A15,15 0 0 1 15,0 h370 a15,15 0 0 1 15,15 v190 a15,15 0 0 1 -15,15 h-370 a15,15 0 0 1 -15,-15 v-190 A15,15 0 0 1 4.393000000000001,4.393000000000001"/><clipPath id="xtbrc-id-0"><rect x="200" y="74" width="400" height="135"/></clipPath><clipPath id="xtcp-id-0" clip-path="url(#xtcp-id)"><rect x="200" y="74" width="400" height="135"/></clipPath><mask id="xtom-id-0"><rect x="200" y="74" width="400" height="135" fill="#fff" mask="url(#xtom-id)"/></mask><g clip-path="url(#xtcp-id)" mask="url(#xtom-id)"><image x="200" y="74" width="400" height="135" href="data:image/svg+xml;utf8,%3Csvg  xmlns=%22http://www.w3.org/2000/svg%22 width=%22Infinity%22 height=%22NaN%22%3E%3Cpath fill=%22none%22 stroke=%22hsl(240, 60%25, 60%25)%22 stroke-width=%221%22 d=%22M0,115.723C0,115.723,10.672,114.698,16,114.839C21.339,114.981,26.813,114.995,32,116.579C37.498,118.258,43.227,126.362,48,125C54.312,123.2,57.783,104.136,64,97.73C68.805,92.779,74.432,89.031,80,87.689C85.134,86.45,90.753,89.838,96,89.086C101.426,88.308,106.624,84.653,112,82.842C117.292,81.061,123.095,81.432,128,78.285C133.968,74.455,138.586,65.569,144,59.564C149.257,53.733,155.07,49.501,160,42.737C165.913,34.624,170.404,13.727,176,13.415C181.114,13.129,186.375,35.796,192,36.257C197.094,36.675,202.4,20.536,208,19.912C213.111,19.343,219.014,31.087,224,30.261C229.804,29.3,234.884,9.685,240,10C245.593,10.345,249.474,33.118,256,36.371C260.712,38.721,266.682,35.519,272,34.759C277.349,33.993,282.709,31.449,288,31.786C293.377,32.128,299.257,33.19,304,36.924C310.414,41.974,313.508,60.232,320,63.164C324.721,65.295,330.646,60.838,336,60.336C341.313,59.838,346.706,59.524,352,60.144C357.374,60.773,362.657,62.894,368,64.148C373.324,65.397,379.118,64.697,384,67.652C390.019,71.295,400,86.726,400,86.726%22 style=%22filter:drop-shadow(0 0 1px hsl(240, 60%25, 60%25))%22%3E%3C/path%3E%3C/svg%3E" preserveAspectRatio="none" transform="matrix(1.00,0.00,0.00,1.00,-200.00,0.00)" clip-path="url(#xtbrc-id-0)"/></g><mask id="xtom-id-0-0"><rect x="200" y="74" width="0" height="135" fill="#fff" mask="url(#xtom-id)"/></mask><g clip-path="url(#xtcp-id)" mask="url(#xtom-id)"></g><mask id="xtom-id-1"><rect x="16" y="13" width="171" height="50" fill="#fff" mask="url(#xtom-id)"/></mask><mask id="xtom-id-1-0"><rect x="16" y="13" width="171" height="30" fill="#fff" mask="url(#xtom-id)"/></mask><clipPath id="xtcp-id-1-0-0" clip-path="url(#xtcp-id)"><rect x="16" y="18" width="20" height="20"/></clipPath><mask id="xtom-id-1-0-0"><rect x="16" y="18" width="20" height="20" fill="#fff" mask="url(#xtom-id)"/></mask><image x="16" y="18" width="20" height="20" href="data:image/svg+xml;utf8,%3Csvg  role=%22img%22 fill=%22none%22 stroke=%22white%22 stroke-width=%221.5%22 stroke-linecap=%22round%22 stroke-linejoin=%22round%22 xmlns=%22http://www.w3.org/2000/svg%22 width=%2220%22 height=%2220%22 viewBox=%220 0 24 24%22%3E%3Cpath d=%22M21 15v4a2 2 0 0 1-2 2H5a2 2 0 0 1-2-2v-4%22%3E%3C/path%3E%3Cpolyline points=%227 10 12 15 17 10%22%3E%3C/polyline%3E%3Cline x1=%2212%22 x2=%2212%22 y1=%2215%22 y2=%223%22%3E%3C/line%3E%3C/svg%3E" preserveAspectRatio="none" clip-path="url(#xtcp-id-1-0-0)" mask="url(#xtom-id-1-0-0)"/><mask id="xtom-id-1-0-0-0"><rect x="16" y="18" width="0" height="20" fill="#fff" mask="url(#xtom-id)"/></mask><mask id="xtom-id-1-0-0-1"><rect x="16" y="18" width="0" height="20" fill="#fff" mask="url(#xtom-id)"/></mask><mask id="xtom-id-1-0-0-2"><rect x="16" y="18" width="0" height="20" fill="#fff" mask="url(#xtom-id)"/></mask><mask id="xtom-id-1-0-1"><rect x="42" y="13" width="145" height="30" fill="#fff" mask="url(#xtom-id)"/></mask><path fill="white" d="M54.8 36.6L44.2 36.6L44.2 34.7L48.6 34.7L48.6 24.0L45.1 24.0L45.1 22.5Q46.1 22.4 46.8 22.2Q47.5 22.0 48.1 21.8Q48.7 21.6 49.2 21.3L49.2 21.3L50.9 21.3L50.9 34.7L54.8 34.7L54.8 36.6ZM63.2 36.9L63.2 36.9Q61.9 36.9 60.9 36.6Q59.8 36.3 59.0 35.8Q58.2 35.3 57.7 34.7L57.7 34.7L58.8 33.2Q59.6 33.9 60.7 34.4Q61.7 35.0 63.1 35.0L63.1 35.0Q64.1 35.0 64.8 34.6Q65.6 34.3 66.1 33.8Q66.5 33.2 66.5 32.4L66.5 32.4Q66.5 31.6 66.0 30.9Q65.5 30.3 64.3 29.9Q63.2 29.6 61.2 29.6L61.2 29.6L61.2 27.8Q63.0 27.8 64.0 27.5Q65.0 27.1 65.5 26.5Q66 25.9 66 25.2L66 25.2Q66 24.1 65.2 23.5Q64.4 22.9 63.1 22.9L63.1 22.9Q62.1 22.9 61.1 23.4Q60.2 23.8 59.5 24.4L59.5 24.4L58.2 23.0Q59.2 22.1 60.5 21.6Q61.7 21.0 63.2 21.0L63.2 21.0Q64.7 21.0 65.9 21.5Q67.0 22.0 67.7 22.9Q68.4 23.7 68.4 25L68.4 25Q68.4 26.3 67.5 27.2Q66.6 28.1 65.2 28.6L65.2 28.6L65.2 28.7Q66.2 28.9 67.1 29.4Q67.9 29.9 68.4 30.7Q68.9 31.5 68.9 32.5L68.9 32.5Q68.9 33.9 68.1 34.9Q67.4 35.8 66.1 36.4Q64.8 36.9 63.2 36.9ZM76.1 41.8L76.1 41.8L75.4 40.3Q77.0 39.6 77.8 38.7L77.8 38.7Q78.5 37.7 78.5 36.5L78.5 36.5Q78.3 36.5 78.1 36.5L78.1 36.5Q77.5 36.5 77.1 36.3Q76.6 36.0 76.3 35.6Q76.0 35.2 76.0 34.5L76.0 34.5Q76.0 33.6 76.7 33.1Q77.3 32.5 78.1 32.5L78.1 32.5Q79.3 32.5 79.9 33.4Q80.5 34.3 80.5 35.9L80.5 35.9Q80.5 38.0 79.3 39.5Q78.2 41.0 76.1 41.8ZM92.0 36.9L92.0 36.9Q90.7 36.9 89.7 36.6Q88.6 36.3 87.9 35.8Q87.1 35.3 86.5 34.8L86.5 34.8L87.6 33.3Q88.1 33.7 88.7 34.1Q89.3 34.5 90.1 34.7Q90.8 35.0 91.8 35.0L91.8 35.0Q92.8 35.0 93.6 34.6Q94.4 34.2 94.9 33.5Q95.4 32.8 95.4 31.7L95.4 31.7Q95.4 30.3 94.4 29.5Q93.5 28.6 91.9 28.6L91.9 28.6Q91.0 28.6 90.3 28.9Q89.7 29.1 88.9 29.5L88.9 29.5L87.7 28.8L88.2 21.3L97.1 21.3L97.1 23.3L90.3 23.3L89.9 27.4Q90.6 27.2 91.2 27.0Q91.8 26.9 92.5 26.9L92.5 26.9Q94.0 26.9 95.2 27.4Q96.4 27.9 97.1 29.0Q97.8 30.0 97.8 31.7L97.8 31.7Q97.8 33.4 97.0 34.5Q96.2 35.7 94.8 36.3Q93.5 36.9 92.0 36.9ZM112.4 36.6L101.8 36.6L101.8 34.7L106.2 34.7L106.2 24.0L102.7 24.0L102.7 22.5Q103.7 22.4 104.4 22.2Q105.1 22.0 105.7 21.8Q106.3 21.6 106.8 21.3L106.8 21.3L108.5 21.3L108.5 34.7L112.4 34.7L112.4 36.6ZM121.7 36.6L119.2 36.6Q119.3 34.5 119.6 32.8Q119.9 31 120.5 29.5Q121.1 27.9 122.0 26.4Q122.9 24.9 124.2 23.3L124.2 23.3L115.6 23.3L115.6 21.3L126.8 21.3L126.8 22.8Q125.3 24.5 124.3 26.0Q123.4 27.6 122.8 29.2Q122.3 30.7 122.0 32.5Q121.8 34.4 121.7 36.6L121.7 36.6ZM133.7 41.8L133.7 41.8L133.0 40.3Q134.6 39.6 135.4 38.7L135.4 38.7Q136.1 37.7 136.1 36.5L136.1 36.5Q135.9 36.5 135.7 36.5L135.7 36.5Q135.1 36.5 134.7 36.3Q134.2 36.0 133.9 35.6Q133.6 35.2 133.6 34.5L133.6 34.5Q133.6 33.6 134.3 33.1Q134.9 32.5 135.7 32.5L135.7 32.5Q136.9 32.5 137.5 33.4Q138.1 34.3 138.1 35.9L138.1 35.9Q138.1 38.0 136.9 39.5Q135.8 41.0 133.7 41.8ZM155.6 36.6L145.0 36.6L145.0 34.7L149.4 34.7L149.4 24.0L145.9 24.0L145.9 22.5Q146.9 22.4 147.6 22.2Q148.3 22.0 148.9 21.8Q149.5 21.6 150.0 21.3L150.0 21.3L151.7 21.3L151.7 34.7L155.6 34.7L155.6 36.6ZM170.0 36.6L159.4 36.6L159.4 34.7L163.8 34.7L163.8 24.0L160.3 24.0L160.3 22.5Q161.3 22.4 162.0 22.2Q162.7 22.0 163.3 21.8Q163.9 21.6 164.4 21.3L164.4 21.3L166.1 21.3L166.1 34.7L170.0 34.7L170.0 36.6ZM182.5 36.6L180.3 36.6L180.3 32.5L172.5 32.5L172.5 30.9L179.8 21.3L182.5 21.3L182.5 30.7L184.8 30.7L184.8 32.5L182.5 32.5L182.5 36.6ZM175.0 30.7L180.3 30.7L180.3 26.5Q180.3 25.8 180.3 25.0Q180.4 24.3 180.4 23.6L180.4 23.6L180.3 23.6Q179.9 24.2 179.5 24.8Q179.1 25.4 178.7 25.9L178.7 25.9L175.0 30.7Z " clip-path="url(#xtcp-id)" mask="url(#xtom-id)"/><mask id="xtom-id-1-1"><rect x="16" y="45" width="78" height="18" fill="#fff" mask="url(#xtom-id)"/></mask><path fill="white" d="M23.7 58.9L23.7 58.9Q22.6 58.9 22.0 58.3Q21.5 57.7 21.5 56.5L21.5 56.5L21.5 49.7L19.1 49.7L19.1 48.8L22.6 48.8L22.6 56.6Q22.6 57.3 23.0 57.7Q23.3 58.0 23.9 58.0L23.9 58.0Q24.2 58.0 24.5 57.9Q24.8 57.8 25.2 57.7L25.2 57.7L25.5 58.5Q25.1 58.7 24.6 58.8Q24.2 58.9 23.7 58.9ZM29.8 58.9L29.8 58.9Q29.2 58.9 28.7 58.7Q28.1 58.5 27.8 58.0Q27.5 57.6 27.5 57.0L27.5 57.0Q27.5 55.9 28.7 55.3Q29.8 54.7 32.5 54.5L32.5 54.5Q32.4 54.0 32.3 53.6Q32.1 53.2 31.7 53.0Q31.3 52.8 30.7 52.8L30.7 52.8Q30.2 52.8 29.8 52.9Q29.4 53.0 29.0 53.2Q28.6 53.4 28.3 53.6L28.3 53.6L27.8 52.8Q28.2 52.6 28.6 52.3Q29.1 52.1 29.7 52.0Q30.3 51.8 30.9 51.8L30.9 51.8Q31.8 51.8 32.4 52.2Q33.0 52.5 33.3 53.1Q33.6 53.8 33.6 54.6L33.6 54.6L33.6 58.8L32.7 58.8L32.6 57.9L32.5 57.9Q32.0 58.3 31.3 58.6Q30.6 58.9 29.8 58.9ZM30.2 58.0L30.2 58.0Q30.7 58.0 31.3 57.8Q31.9 57.5 32.5 57.0L32.5 57.0L32.5 55.2Q31.0 55.3 30.2 55.6Q29.3 55.8 29.0 56.1Q28.7 56.5 28.7 56.9L28.7 56.9Q28.7 57.3 28.9 57.6Q29.1 57.8 29.4 57.9Q29.8 58.0 30.2 58.0ZM39.1 58.9L39.1 58.9Q38.1 58.9 37.3 58.6Q36.4 58.3 35.8 57.9L35.8 57.9L36.3 57.1Q36.9 57.5 37.6 57.8Q38.3 58.0 39.3 58.0L39.3 58.0Q40.1 58.0 40.6 57.7Q41.0 57.4 41.0 57.0L41.0 57.0Q41.0 56.8 40.9 56.6Q40.8 56.5 40.6 56.3Q40.4 56.1 40.0 56.0Q39.6 55.9 38.9 55.7L38.9 55.7Q37.5 55.4 36.9 55.0Q36.2 54.5 36.2 53.7L36.2 53.7Q36.2 52.9 36.9 52.4Q37.6 51.8 39.0 51.8L39.0 51.8Q39.8 51.8 40.6 52.1Q41.3 52.3 41.8 52.7L41.8 52.7L41.2 53.4Q40.8 53.1 40.2 52.9Q39.6 52.7 38.9 52.7L38.9 52.7Q38.4 52.7 38.0 52.8Q37.7 53.0 37.5 53.2Q37.4 53.4 37.4 53.7L37.4 53.7Q37.4 54.1 37.8 54.4Q38.3 54.6 39.3 54.8L39.3 54.8Q40.5 55.1 41.1 55.3Q41.7 55.6 41.9 56.0Q42.2 56.4 42.2 56.9L42.2 56.9Q42.2 57.5 41.8 57.9Q41.5 58.4 40.8 58.7Q40.1 58.9 39.1 58.9ZM48.7 58.9L48.7 58.9Q47.7 58.9 47.1 58.6Q46.6 58.2 46.3 57.6Q46.1 57.0 46.1 56.1L46.1 56.1L46.1 52.9L44.2 52.9L44.2 52.0L46.1 52.0L46.3 49.8L47.2 49.8L47.2 52.0L50.6 52.0L50.6 52.9L47.2 52.9L47.2 56.1Q47.2 56.7 47.4 57.2Q47.5 57.6 47.9 57.8Q48.3 58.0 49.0 58.0L49.0 58.0Q49.4 58.0 49.8 57.9Q50.2 57.8 50.6 57.7L50.6 57.7L50.8 58.5Q50.4 58.7 49.9 58.8Q49.4 58.9 48.7 58.9Z M61.8 61.7L61.8 61.7Q61.6 61.7 61.4 61.7Q61.1 61.6 60.9 61.6L60.9 61.6L61.2 60.7Q61.3 60.7 61.5 60.7Q61.6 60.7 61.8 60.7L61.8 60.7Q62.5 60.7 63.0 60.3Q63.4 59.9 63.7 59.3L63.7 59.3L63.9 58.8L60.7 52.0L61.8 52.0L63.5 55.7Q63.7 56.2 63.9 56.7Q64.1 57.2 64.4 57.7L64.4 57.7L64.4 57.7Q64.6 57.2 64.8 56.7Q65.0 56.2 65.1 55.7L65.1 55.7L66.6 52.0L67.7 52.0L64.7 59.3Q64.5 60.0 64.1 60.5Q63.7 61.1 63.2 61.4Q62.6 61.7 61.8 61.7ZM73.0 58.9L73.0 58.9Q72.0 58.9 71.2 58.5Q70.3 58.1 69.8 57.3Q69.4 56.5 69.4 55.4L69.4 55.4Q69.4 54.3 69.8 53.5Q70.3 52.7 71.1 52.2Q71.9 51.8 72.8 51.8L72.8 51.8Q73.8 51.8 74.5 52.2Q75.2 52.6 75.6 53.3Q75.9 54.0 75.9 55.0L75.9 55.0Q75.9 55.2 75.9 55.4Q75.9 55.6 75.9 55.7L75.9 55.7L70.5 55.7Q70.6 56.4 70.8 56.8L70.8 56.8Q71.2 57.4 71.8 57.7Q72.4 58.0 73.2 58.0L73.2 58.0Q73.8 58.0 74.3 57.8Q74.8 57.7 75.2 57.4L75.2 57.4L75.7 58.1Q75.1 58.5 74.5 58.7Q73.8 58.9 73.0 58.9ZM70.5 54.8L70.5 54.8L74.9 54.8Q74.8 53.8 74.3 53.3L74.3 53.3Q73.8 52.7 72.9 52.7L72.9 52.7Q72.2 52.7 71.7 53.0Q71.1 53.3 70.8 53.9L70.8 53.9Q70.6 54.3 70.5 54.8ZM80.2 58.9L80.2 58.9Q79.6 58.9 79.1 58.7Q78.5 58.5 78.2 58.0Q77.9 57.6 77.9 57.0L77.9 57.0Q77.9 55.9 79.1 55.3Q80.2 54.7 82.9 54.5L82.9 54.5Q82.8 54.0 82.7 53.6Q82.5 53.2 82.1 53.0Q81.7 52.8 81.1 52.8L81.1 52.8Q80.6 52.8 80.2 52.9Q79.8 53.0 79.4 53.2Q79.0 53.4 78.7 53.6L78.7 53.6L78.2 52.8Q78.6 52.6 79.0 52.3Q79.5 52.1 80.1 52.0Q80.6 51.8 81.3 51.8L81.3 51.8Q82.2 51.8 82.8 52.2Q83.4 52.5 83.7 53.1Q84.0 53.8 84.0 54.6L84.0 54.6L84.0 58.8L83.1 58.8L83.0 57.9L82.9 57.9Q82.4 58.3 81.7 58.6Q81.0 58.9 80.2 58.9ZM80.6 58.0L80.6 58.0Q81.1 58.0 81.7 57.8Q82.3 57.5 82.9 57.0L82.9 57.0L82.9 55.2Q81.4 55.3 80.6 55.6Q79.7 55.8 79.4 56.1Q79.1 56.5 79.1 56.9L79.1 56.9Q79.1 57.3 79.3 57.6Q79.5 57.8 79.8 57.9Q80.2 58.0 80.6 58.0ZM88.4 58.8L87.2 58.8L87.2 52.0L88.2 52.0L88.3 53.6L88.3 53.6Q88.9 52.8 89.7 52.3Q90.4 51.8 91.4 51.8L91.4 51.8Q91.8 51.8 92.1 51.9Q92.4 51.9 92.7 52.1L92.7 52.1L92.5 53.1Q92.1 53.0 91.9 52.9Q91.6 52.8 91.2 52.8L91.2 52.8Q90.4 52.8 89.7 53.3Q89.0 53.7 88.4 54.8L88.4 54.8L88.4 58.8Z " clip-path="url(#xtcp-id)" mask="url(#xtom-id)"/></svg>